rec1_007.mot
nRows=12
nColumns=19

name rec1_007.mot
datacolumns 19
datarows 12
range 0.0000000000 0.0220005715
endheader
time	ground_force_vx	ground_force_vy	ground_force_vz	ground_force_px	ground_force_py	ground_force_pz	1_ground_force_vx	1_ground_force_vy	1_ground_force_vz	1_ground_force_px	1_ground_force_py	1_ground_force_pz	ground_torque_x	ground_torque_y	ground_torque_z	1_ground_torque_x	1_ground_torque_y	1_ground_torque_z	
        0.0000000000	      104.0092019926	      458.7111515762	      -15.1126068235	       -0.7000000000	       -0.0180000000	        0.5600000000	      -48.8162129218	      462.3797962032	        3.5989929727	       -0.7000000000	       -0.0180000000	       -0.5600000000	      222.7717514105	      -33.5874294375	      331.7856250600	     -216.0955511004	      -23.6583224434	      543.6517935783	
        0.0020003355	      103.4184051265	      447.5384020948	      -14.3628996717	       -0.7000000000	       -0.0180000000	        0.5600000000	      -49.6344319613	      466.0350606163	        6.2632235116	       -0.7000000000	       -0.0180000000	       -0.5600000000	      217.2877975798	      -33.5958641894	      323.1392148186	     -217.5294107805	      -27.2739944059	      547.6075408109	
        0.0039999912	      102.6849406779	      436.1526292219	      -13.5427095216	       -0.7000000000	       -0.0180000000	        0.5600000000	      -50.5548717826	      469.4765553958	        8.9074827169	       -0.7000000000	       -0.0180000000	       -0.5600000000	      211.7022971424	      -33.5856132754	      314.3681266660	     -218.8628146574	      -30.9071005120	      551.3274828332	
        0.0060002867	      101.7995489618	      424.5639405390	      -12.6510919685	       -0.7000000000	       -0.0180000000	        0.5600000000	      -51.5863354569	      472.7011771079	       11.5225752587	       -0.7000000000	       -0.0180000000	       -0.5600000000	      206.0208842848	      -33.5562049340	      305.4795125823	     -220.0961872082	      -34.5486745457	      554.8086945675	
        0.0080000223	      100.7533828721	      412.7861052366	      -11.6876304820	       -0.7000000000	       -0.0180000000	        0.5600000000	      -52.7342928650	      475.7114473809	       14.0999130433	       -0.7000000000	       -0.0180000000	       -0.5600000000	      200.2507010072	      -33.5071465245	      296.4840836982	     -221.2326658717	      -38.1892364890	      558.0543823476	
        0.0100003180	       99.5382709523	      400.8360685730	      -10.6529943544	       -0.7000000000	       -0.0180000000	        0.5600000000	      -54.0007975629	      478.5156771569	       16.6306081406	       -0.7000000000	       -0.0180000000	       -0.5600000000	      194.4002558081	      -33.4381429084	      287.3953030591	     -222.2782266838	      -41.8176938612	      561.0741779022	
        0.0120000936	       98.1469959364	      388.7331337251	       -9.5495251225	       -0.7000000000	       -0.0180000000	        0.5600000000	      -55.3845096198	      481.1279216647	       19.1043129703	       -0.7000000000	       -0.0180000000	       -0.5600000000	      188.4791261458	      -33.3488436817	      278.2280814521	     -223.2415471240	      -45.4200789046	      563.8839657858	
        0.0140003490	       96.5737614333	      376.4982742450	       -8.3819805715	       -0.7000000000	       -0.0180000000	        0.5600000000	      -56.8807678217	      483.5679182788	       21.5085514756	       -0.7000000000	       -0.0180000000	       -0.5600000000	      182.4977225839	      -33.2378381216	      268.9979256681	     -224.1338884389	      -48.9788360320	      566.5057186042	
        0.0160000447	       94.8148242855	      364.1538592523	       -7.1581759900	       -0.7000000000	       -0.0180000000	        0.5600000000	      -58.4816289892	      485.8609670153	       23.8283293013	       -0.7000000000	       -0.0180000000	       -0.5600000000	      176.4671141334	      -33.1014772340	      259.7210264392	     -224.9689857180	      -52.4723161643	      568.9672106783	
        0.0180003803	       92.8690816952	      351.7235444234	       -5.8894453923	       -0.7000000000	       -0.0180000000	        0.5600000000	      -60.1758317915	      488.0377872866	       26.0460552100	       -0.7000000000	       -0.0180000000	       -0.5600000000	      170.3989098627	      -32.9336122706	      250.4148157536	     -225.7629025381	      -55.8745719572	      571.3017317740	
        0.0200000758	       90.7383696994	      339.2321176829	       -4.5908012029	       -0.7000000000	       -0.0180000000	        0.5600000000	      -61.9490474646	      490.1343490372	       28.1422015270	       -0.7000000000	       -0.0180000000	       -0.5600000000	      164.3052026873	      -32.7264004606	      241.0981978191	     -226.5339742464	      -59.1561243313	      573.5481154932	
        0.0220005715	       88.4273280701	      326.7052803052	       -3.2804813407	       -0.7000000000	       -0.0180000000	        0.5600000000	      -63.7846035098	      492.1913069431	       30.0960500385	       -0.7000000000	       -0.0180000000	       -0.5600000000	      158.1984472304	      -32.4710613847	      231.7911813316	     -227.3025094203	      -62.2851738582	      575.7504012455	
